<?xml version="1.0" encoding="UTF-8" standalone="no"?><!-- Generator: Gravit.io --><svg xmlns="http://www.w3.org/2000/svg" xmlns:xlink="http://www.w3.org/1999/xlink" style="isolation:isolate" viewBox="0 0 64 64" width="64pt" height="64pt"><circle vector-effect="non-scaling-stroke" cx="32" cy="32" r="32" fill="rgb(221,221,221)"/><clipPath id="_clipPath_vLtx6uunzbhwj44iWDlznNQSKRTX1bti"><circle vector-effect="non-scaling-stroke" cx="32" cy="32" r="32" fill="rgb(221,221,221)"/></clipPath><g clip-path="url(#_clipPath_vLtx6uunzbhwj44iWDlznNQSKRTX1bti)"><g><polygon points="32,62,6.019,47,6.019,17,32,2,57.981,17,57.981,47" fill="rgb(15,14,23)"/><g><mask id="_mask_WWFnWwXpXgPNFivhjwFpQKKgyXZHbatu"><circle vector-effect="non-scaling-stroke" cx="31.999999999999996" cy="32.000000000000014" r="16.053082191780817" fill="white" stroke="none"/></mask><circle vector-effect="non-scaling-stroke" cx="31.999999999999996" cy="32.000000000000014" r="16.053082191780817" fill="none"/><circle vector-effect="non-scaling-stroke" cx="31.999999999999996" cy="32.000000000000014" r="16.053082191780817" fill="none" mask="url(#_mask_WWFnWwXpXgPNFivhjwFpQKKgyXZHbatu)" stroke-width="1" stroke="rgb(221,221,221)" stroke-linejoin="miter" stroke-linecap="square" stroke-miterlimit="3"/><circle vector-effect="non-scaling-stroke" cx="41.6960616438356" cy="19.799657534246588" r="0.9375" fill="rgb(221,221,221)"/><circle vector-effect="non-scaling-stroke" cx="20.133561643835588" cy="42.928938356164394" r="0.9375" fill="rgb(221,221,221)"/></g><g><mask id="_mask_EbYZvl1gDNyajtBhdXbCmOoyH2ffxJuk"><circle vector-effect="non-scaling-stroke" cx="31.92040567894387" cy="31.91156186549318" r="20.340770936565622" fill="white" stroke="none"/></mask><circle vector-effect="non-scaling-stroke" cx="31.92040567894387" cy="31.91156186549318" r="20.340770936565622" fill="none"/><circle vector-effect="non-scaling-stroke" cx="31.92040567894387" cy="31.91156186549318" r="20.340770936565622" fill="none" mask="url(#_mask_EbYZvl1gDNyajtBhdXbCmOoyH2ffxJuk)" stroke-width="1" stroke="rgb(221,221,221)" stroke-linejoin="miter" stroke-linecap="square" stroke-miterlimit="3"/><circle vector-effect="non-scaling-stroke" cx="52.01354983889045" cy="31.003597017889966" r="0.860797842532925" fill="rgb(221,221,221)"/><circle vector-effect="non-scaling-stroke" cx="11.986450161109556" cy="31.050764022960262" r="0.8607978425329232" fill="rgb(221,221,221)"/><circle vector-effect="non-scaling-stroke" cx="32.21519946063324" cy="11.818417705546624" r="0.8607978425329232" fill="rgb(221,221,221)"/><circle vector-effect="non-scaling-stroke" cx="17.180716594476053" cy="18.079837628628564" r="0.8607978425329215" fill="rgb(221,221,221)"/><circle vector-effect="non-scaling-stroke" cx="46.660094763411756" cy="18.032670623558257" r="0.860797842532925" fill="rgb(221,221,221)"/><circle vector-effect="non-scaling-stroke" cx="47.520892605944674" cy="44.56411097560037" r="0.860797842532925" fill="rgb(221,221,221)"/><circle vector-effect="non-scaling-stroke" cx="16.27275174687282" cy="44.564110975600386" r="0.8607978425329224" fill="rgb(221,221,221)"/><circle vector-effect="non-scaling-stroke" cx="32.21519946063324" cy="52.18158229445339" r="0.8607978425329232" fill="rgb(221,221,221)"/></g><path d=" M 31.645 26.188 L 31.645 38.185 L 30.055 38.185 L 24.015 28.94 L 24.015 38.185 L 22.425 38.185 L 22.425 26.188 L 24.015 26.188 L 30.072 35.474 L 30.072 26.188 L 31.645 26.188 L 31.645 26.188 Z  M 37.916 38.35 L 37.916 38.35 L 37.916 38.35 Q 36.103 38.35 34.966 37.159 L 34.966 37.159 L 34.966 37.159 Q 33.829 35.969 33.829 33.975 L 33.829 33.975 L 33.829 33.695 L 33.829 33.695 Q 33.829 32.368 34.336 31.326 L 34.336 31.326 L 34.336 31.326 Q 34.842 30.283 35.753 29.694 L 35.753 29.694 L 35.753 29.694 Q 36.663 29.105 37.726 29.105 L 37.726 29.105 L 37.726 29.105 Q 39.465 29.105 40.429 30.25 L 40.429 30.25 L 40.429 30.25 Q 41.393 31.396 41.393 33.53 L 41.393 33.53 L 41.393 34.164 L 35.353 34.164 L 35.353 34.164 Q 35.386 35.483 36.124 36.294 L 36.124 36.294 L 36.124 36.294 Q 36.861 37.106 37.998 37.106 L 37.998 37.106 L 37.998 37.106 Q 38.806 37.106 39.366 36.776 L 39.366 36.776 L 39.366 36.776 Q 39.926 36.447 40.347 35.903 L 40.347 35.903 L 41.278 36.628 L 41.278 36.628 Q 40.157 38.35 37.916 38.35 Z  M 37.726 30.358 L 37.726 30.358 L 37.726 30.358 Q 36.803 30.358 36.177 31.029 L 36.177 31.029 L 36.177 31.029 Q 35.551 31.701 35.403 32.912 L 35.403 32.912 L 39.869 32.912 L 39.869 32.797 L 39.869 32.797 Q 39.803 31.635 39.242 30.996 L 39.242 30.996 L 39.242 30.996 Q 38.682 30.358 37.726 30.358 Z " fill="rgb(221,221,221)"/></g></g></svg>